HIERARCHY
ROOT Hips
{
	OFFSET 0.000000 89.005402 0.000000
	CHANNELS 6 Xposition Yposition Zposition Xrotation Yrotation Zrotation
	JOINT Spine
	{
		OFFSET 0.116900 10.681000 0.373400
		CHANNELS 3 Xrotation Yrotation Zrotation
		JOINT Spine1
		{
			OFFSET 0.000000 13.840401 0.053500
			CHANNELS 3 Xrotation Yrotation Zrotation
			JOINT Spine2
			{
				OFFSET 0.000000 14.712700 -0.366200
				CHANNELS 3 Xrotation Yrotation Zrotation
				JOINT Neck
				{
					OFFSET 0.000000 35.415497 -3.314200
					CHANNELS 3 Xrotation Yrotation Zrotation
					JOINT Head
					{
						OFFSET 0.000000 16.899200 1.218300
						CHANNELS 3 Xrotation Yrotation Zrotation
						JOINT HeadTop_End
						{
							OFFSET 0.000000 22.206207 2.192500
							CHANNELS 3 Xrotation Yrotation Zrotation
							End Site
							{
								OFFSET 0.000000 22.314178 0.000000
							}
						}
					}
				}
				JOINT LeftShoulder
				{
					OFFSET 12.896400 26.716293 -4.548400
					CHANNELS 3 Xrotation Yrotation Zrotation
					JOINT LeftArm
					{
						OFFSET 19.027000 -4.857010 -1.718400
						CHANNELS 3 Xrotation Yrotation Zrotation
						JOINT LeftForeArm
						{
							OFFSET 24.179897 0.000000 0.000000
							CHANNELS 3 Xrotation Yrotation Zrotation
							JOINT LeftHand
							{
								OFFSET 27.156403 0.000000 0.000000
								CHANNELS 3 Xrotation Yrotation Zrotation
								JOINT LeftHandIndex1
								{
									OFFSET 16.441200 0.000000 0.000000
									CHANNELS 3 Xrotation Yrotation Zrotation
									JOINT LeftHandIndex2
									{
										OFFSET 4.821899 0.000000 0.000000
										CHANNELS 3 Xrotation Yrotation Zrotation
										JOINT LeftHandIndex3
										{
											OFFSET 6.386497 0.000000 0.000000
											CHANNELS 3 Xrotation Yrotation Zrotation
											JOINT LeftHandIndex4
											{
												OFFSET 5.188988 0.000000 0.000000
												CHANNELS 3 Xrotation Yrotation Zrotation
												End Site
												{
													OFFSET -0.178703 5.185913 0.000177
												}
											}
										}
									}
								}
								JOINT LeftHandThumb1
								{
									OFFSET 6.534897 -5.032593 5.900300
									CHANNELS 3 Xrotation Yrotation Zrotation
									JOINT LeftHandThumb2
									{
										OFFSET 3.818176 -2.204422 2.204423
										CHANNELS 3 Xrotation Yrotation Zrotation
										JOINT LeftHandThumb3
										{
											OFFSET 3.252098 -1.877594 1.877601
											CHANNELS 3 Xrotation Yrotation Zrotation
											JOINT LeftHandThumb4
											{
												OFFSET 5.251778 -3.032120 3.032117
												CHANNELS 3 Xrotation Yrotation Zrotation
												End Site
												{
													OFFSET 0.000023 6.780014 0.000000
												}
											}
										}
									}
								}
							}
						}
					}
				}
				JOINT RightShoulder
				{
					OFFSET -12.896300 26.716293 -4.548400
					CHANNELS 3 Xrotation Yrotation Zrotation
					JOINT RightArm
					{
						OFFSET -19.027000 -4.857010 -1.718400
						CHANNELS 3 Xrotation Yrotation Zrotation
						JOINT RightForeArm
						{
							OFFSET -24.179897 0.000000 0.000000
							CHANNELS 3 Xrotation Yrotation Zrotation
							JOINT RightHand
							{
								OFFSET -27.156403 0.000000 0.000000
								CHANNELS 3 Xrotation Yrotation Zrotation
								JOINT RightHandThumb1
								{
									OFFSET -6.591202 -4.852203 5.988100
									CHANNELS 3 Xrotation Yrotation Zrotation
									JOINT RightHandThumb2
									{
										OFFSET -3.818176 -2.204422 2.204423
										CHANNELS 3 Xrotation Yrotation Zrotation
										JOINT RightHandThumb3
										{
											OFFSET -3.252098 -1.877594 1.877601
											CHANNELS 3 Xrotation Yrotation Zrotation
											JOINT RightHandThumb4
											{
												OFFSET -5.251778 -3.032120 3.032117
												CHANNELS 3 Xrotation Yrotation Zrotation
												End Site
												{
													OFFSET -0.000023 6.780014 0.000000
												}
											}
										}
									}
								}
								JOINT RightHandIndex1
								{
									OFFSET -16.029404 0.000000 0.000000
									CHANNELS 3 Xrotation Yrotation Zrotation
									JOINT RightHandIndex2
									{
										OFFSET -5.213303 0.000000 0.000000
										CHANNELS 3 Xrotation Yrotation Zrotation
										JOINT RightHandIndex3
										{
											OFFSET -6.386528 0.000000 0.000000
											CHANNELS 3 Xrotation Yrotation Zrotation
											JOINT RightHandIndex4
											{
												OFFSET -5.189026 0.000000 0.000000
												CHANNELS 3 Xrotation Yrotation Zrotation
												End Site
												{
													OFFSET 0.236702 5.183624 0.001972
												}
											}
										}
									}
								}
							}
						}
					}
				}
			}
		}
	}
	JOINT LeftUpLeg
	{
		OFFSET 14.073000 -7.904099 -1.463000
		CHANNELS 3 Xrotation Yrotation Zrotation
		JOINT LeftLeg
		{
			OFFSET -0.109806 -34.073280 4.093200
			CHANNELS 3 Xrotation Yrotation Zrotation
			JOINT LeftFoot
			{
				OFFSET 0.109806 -29.899420 -6.319000
				CHANNELS 3 Xrotation Yrotation Zrotation
				JOINT LeftToeBase
				{
					OFFSET 1.551100 -14.988700 20.535801
					CHANNELS 3 Xrotation Yrotation Zrotation
					JOINT LeftToe_End
					{
						OFFSET 0.221200 0.570800 13.248301
						CHANNELS 3 Xrotation Yrotation Zrotation
						End Site
						{
							OFFSET 0.000000 13.262435 0.000000
						}
					}
				}
			}
		}
	}
	JOINT RightUpLeg
	{
		OFFSET -13.839300 -7.904099 -1.463000
		CHANNELS 3 Xrotation Yrotation Zrotation
		JOINT RightLeg
		{
			OFFSET 0.109694 -34.073219 4.093300
			CHANNELS 3 Xrotation Yrotation Zrotation
			JOINT RightFoot
			{
				OFFSET -0.109694 -29.899384 -6.319200
				CHANNELS 3 Xrotation Yrotation Zrotation
				JOINT RightToeBase
				{
					OFFSET -1.551100 -14.988700 20.535801
					CHANNELS 3 Xrotation Yrotation Zrotation
					JOINT RightToe_End
					{
						OFFSET -0.221200 0.570900 13.248299
						CHANNELS 3 Xrotation Yrotation Zrotation
						End Site
						{
							OFFSET 0.000000 13.262440 0.000000
						}
					}
				}
			}
		}
	}
}
MOTION
Frames: 4
Frame Time: 0.033333
-0.584466 59.504745 1.181305 21.681198 -70.270543 15.307960 9.547331 8.189125 -1.272739 3.277664 1.362020 1.463055 3.237834 1.411045 1.509004 21.741010 4.612158 -7.703215 -13.910943 37.926668 -19.474452 -0.000001 -0.000001 0.000000 1.044243 -3.380409 -7.656768 -20.090084 35.105075 -52.411791 0.000279 -85.380766 0.000251 11.595276 -20.625313 18.265249 0.480806 2.532305 -21.498121 0.300033 2.014196 -16.943100 0.181555 1.573865 -13.160306 0.000003 -0.000003 -0.000002 -1.540020 3.690195 6.142366 3.946760 7.971369 0.752834 -0.575613 1.586246 2.542378 0.000001 -0.000001 0.000000 0.610768 -0.376105 4.024651 -61.375540 48.491153 80.305287 -0.000050 109.085211 0.000036 -28.077502 11.397335 -30.518491 10.694382 -11.670735 -1.922944 4.645014 -8.656766 -0.231318 -1.269819 0.126070 -2.098675 0.000001 0.000000 -0.000002 0.550327 -2.715759 22.906489 0.474464 -2.528955 21.248988 0.313052 -2.066738 17.224398 0.000000 -0.000002 0.000001 -46.722421 -13.228683 54.634485 54.457477 -11.562978 -1.932884 -12.878101 -7.950987 -39.501036 -0.000019 0.000026 0.000006 0.000000 -0.000000 0.000000 -37.459722 6.797413 -36.926325 69.549747 3.898964 1.350292 -24.356571 -10.845391 37.063339 -0.000005 -0.000021 0.000002 -0.000000 0.000000 -0.000000 
-0.640226 59.709564 1.107802 21.318885 -69.533805 14.905392 9.678664 8.090624 -1.237638 3.252421 1.348989 1.566155 3.210493 1.404554 1.610290 21.732349 4.516294 -8.020193 -13.946249 37.635237 -19.247304 -0.000001 0.000000 0.000000 1.030063 -3.282267 -7.633343 -18.738115 34.817955 -52.994943 0.000023 -85.601381 -0.000020 10.710582 -20.329500 16.983837 0.480807 2.532306 -21.498121 0.300029 2.014196 -16.943100 0.181562 1.573868 -13.160306 0.000000 0.000001 -0.000001 -1.540016 3.690193 6.142367 3.946759 7.971368 0.752834 -0.575614 1.586248 2.542379 0.000003 0.000000 0.000000 0.611705 -0.363852 4.020469 -62.191468 48.981691 80.978839 0.000027 108.123903 -0.000058 -29.281595 12.596362 -29.505406 10.694386 -11.670737 -1.922942 4.645014 -8.656767 -0.231312 -1.269817 0.126071 -2.098681 0.000001 0.000003 -0.000001 0.550329 -2.715758 22.906482 0.474464 -2.528953 21.248990 0.313054 -2.066738 17.224397 0.000000 -0.000000 -0.000001 -46.518386 -13.662345 54.022685 53.534026 -11.290509 -1.920036 -12.376359 -7.912105 -39.706021 -0.000010 -0.000002 0.000004 0.000000 -0.000002 0.000000 -36.780999 6.264572 -36.927196 69.211844 3.508614 1.329106 -24.570431 -11.102756 37.239120 -0.000008 0.000010 0.000002 0.000000 0.000000 0.000000 
-0.721017 59.835442 1.006335 21.307984 -68.447723 14.872517 9.645549 8.042947 -1.234833 3.132415 1.343765 1.699581 3.087373 1.406214 1.740572 21.904552 4.344671 -8.364327 -14.111057 37.013024 -18.852043 0.000000 -0.000001 -0.000000 1.012405 -3.028975 -7.653680 -16.845217 34.834252 -54.064366 0.000117 -85.996542 0.000135 8.518985 -18.128359 12.522033 0.480807 2.532305 -21.498121 0.300036 2.014196 -16.943100 0.181556 1.573870 -13.160302 0.000000 0.000001 0.000000 -1.540019 3.690195 6.142364 3.946759 7.971366 0.752834 -0.575610 1.586248 2.542378 -0.000001 -0.000000 -0.000000 0.610621 -0.330533 3.938469 -63.431154 49.397140 81.906665 0.000093 107.018696 -0.000106 -30.426246 13.871395 -28.548444 10.694383 -11.670735 -1.922944 4.645011 -8.656763 -0.231317 -1.269818 0.126069 -2.098669 0.000000 -0.000002 -0.000000 0.550327 -2.715756 22.906482 0.474463 -2.528951 21.248990 0.313056 -2.066732 17.224402 -0.000000 -0.000005 -0.000000 -46.661978 -14.344297 53.177958 52.535397 -11.084905 -1.908005 -11.841649 -7.998467 -39.952830 -0.000942 -0.000000 -0.000000 0.000000 -0.000000 0.000000 -36.190990 5.680396 -37.083976 69.064933 3.105992 1.312933 -24.953582 -11.501660 37.503418 0.000011 0.000010 0.000004 -0.000000 -0.000000 0.000000 
-0.849670 59.967140 0.890704 21.185604 -67.004880 14.920531 9.610243 8.144729 -1.343419 2.977570 1.362486 1.801126 2.928880 1.430816 1.838645 22.055470 4.088855 -8.681811 -14.223323 35.803824 -18.083313 0.000000 0.000000 -0.000000 0.995054 -2.605030 -7.753654 -14.381749 35.226721 -55.917109 0.000466 -86.055903 0.000473 7.900873 -13.624863 6.337205 0.480807 2.532304 -21.498123 0.300038 2.014199 -16.943099 0.181557 1.573869 -13.160307 0.000001 0.000002 0.000000 -1.540022 3.690195 6.142367 3.946760 7.971366 0.752833 -0.575607 1.586247 2.542379 0.000005 -0.000000 0.000000 0.609833 -0.293754 3.840511 -65.227070 49.729306 82.990794 0.000047 105.554829 -0.000047 -30.652236 15.325737 -28.266816 10.694381 -11.670737 -1.922944 4.645014 -8.656773 -0.231319 -1.269817 0.126067 -2.098674 0.000003 -0.000001 0.000001 0.550326 -2.715756 22.906484 0.474465 -2.528949 21.248987 0.313054 -2.066736 17.224400 0.000002 -0.000003 0.000001 -46.918478 -15.093448 51.867172 51.393413 -10.853891 -1.879143 -11.226612 -8.053499 -40.176569 -0.002294 -0.000024 -0.000006 0.000000 -0.000000 -0.000000 -35.274550 5.095743 -37.528136 68.830972 2.926008 1.328966 -25.532941 -12.265832 37.803956 -0.000010 0.000017 0.000002 0.000000 -0.000000 -0.000000 
